<svg width="96" height="96" fill="none" xmlns="http://www.w3.org/2000/svg">
  <circle cx="48" cy="48" r="48" fill="#C4C4C4" />
  <path d="M92.124 48c0 24.37-19.755 44.124-44.124 44.124C23.63 92.124 3.876 72.37 3.876 48 3.876 23.63 23.63 3.876 48 3.876 72.37 3.876 92.124 23.63 92.124 48Z" fill="#222" />
  <path d="M41.74 85.863h12.819v5.82c-4.964.585-7.767.6-12.82 0v-5.82ZM41.74 4.317c4.947-.635 7.754-.572 12.819.043v6.075h-12.82V4.317ZM77.217 71.894l6.946-10.776 4.83 3.237c-2.11 4.968-3.572 7.44-6.41 11.05l-5.366-3.511ZM7.083 31.453c1.807-4.397 3.147-6.8 6.421-10.882l5.263 3.392L11.82 34.74l-4.738-3.286ZM12.451 60.995l6.289 11.172-5.456 3.07c-2.943-4.015-4.626-6.415-6.38-11.138l5.547-3.104ZM82.673 20.571c3.118 4.224 4.81 7.237 6.32 11.074l-5.487 3.17-6.289-11.173 5.456-3.07Z" fill="#C4C4C4" />
  <circle cx="47.851" cy="47.851" r="30.857" fill="#fff" />
  <path d="M48 58.75 31.431 41.876 48 25l16.569 16.875L48 58.751Z" fill="#222" />
  <path d="M64.569 41.875a11.566 11.566 0 0 0-16.569 0c-4.575 4.66-4.575 12.216 0 16.876a11.565 11.565 0 0 0 16.569 0c4.575-4.66 4.575-12.216 0-16.876Z" fill="#222" />
  <path d="M48 41.875a11.566 11.566 0 0 0-16.569 0c-4.575 4.66-4.575 12.216 0 16.876a11.566 11.566 0 0 0 16.569 0c4.575-4.66 4.575-12.216 0-16.876Z" fill="#222" />
  <path d="M48 47.5c0 10.607-2.604 18.562-7.81 23.866h15.62C50.603 66.062 48 58.107 48 47.5Z" fill="#222" />
</svg>