<svg width="135" height="208" fill="none" xmlns="http://www.w3.org/2000/svg">
  <rect x="1" y="1" width="133" height="205.4" rx="8" fill="#F0F0F0" stroke="#000" stroke-width="2" />
  <rect x="6.7" y="7.4" width="122.2" height="193.3" rx="3" fill="#F0F0F0" stroke="#000" stroke-width="2" />
  <path fill-rule="evenodd" clip-rule="evenodd" d="M23 29.5h83c.5 0 6.7-.3 6.7.2v147c0 .2.2 1.2 0 1.2H23.5c-1.2 0-.5-3.5-.5-4.5V29.5Z" fill="#222" />
  <path fill-rule="evenodd" clip-rule="evenodd" d="M50.2 82.8c3.6 0 35.3-.3 35.3.2v42.3c0 .4-35.3 0-35.3.1V82.8Z" fill="#F0F0F0" />
  <path fill-rule="evenodd" clip-rule="evenodd" d="M67.9 79 57.5 91.4l-7.1 8.5c-.6.7-3.4 3.2-3.4 4.1 0 1 2.6 3.2 3 3.8l7.5 9 10.4 12.5 10.4-12.6 7-8.5c.5-.7 3.4-3.2 3.4-4 0-1-2.7-3.3-3.1-3.8l-7.3-9L67.9 79Z" fill="#F0F0F0" />
  <path fill-rule="evenodd" clip-rule="evenodd" d="M51.8 84.7h30.7c1.8 0 1.4.2 1.4 2.1v35.6c0 1.8-1 1.2-2.6 1.2H52.6c-1.4 0-.8-1-.8-2.1V84.6v.1Z" fill="#222" />
  <path fill-rule="evenodd" clip-rule="evenodd" d="m67.9 80.9-9.5 11.4-6.7 8c-.5.7-3 3-3 3.8 0 .8 2.3 2.9 2.7 3.4l6.7 8 9.8 12 9.4-11.5 6.7-8.1c.5-.7 3.1-3 3.1-3.7 0-.8-2.3-2.9-2.8-3.5l-6.6-8-9.8-11.9Z" fill="#222" />
  <path fill-rule="evenodd" clip-rule="evenodd" d="M55 88.6h21c.8 0 4.7-.6 4.7.5v30.5H59.4c-.9 0-4.4.7-4.4-.5V88.6Z" fill="#F0F0F0" />
  <path fill-rule="evenodd" clip-rule="evenodd" d="m67.9 84.7-8 9.7-5.4 6.6c-.5.4-2.7 2.4-2.7 3.1 0 .7 2 2.4 2.4 2.9l5.7 6.8 8 9.8 8-9.8 5.4-6.5c.4-.5 2.7-2.4 2.7-3.2 0-.6-2-2.4-2.5-2.8l-5.7-6.9-8-9.7Z" fill="#F0F0F0" />
  <path fill-rule="evenodd" clip-rule="evenodd" d="M56.6 90.6h20.5c2.5 0 2 .2 2 2.8V117c0 1.3-4.2.6-5.2.6H61c-1.5 0-4.3 1-4.3-1V90.5Z" fill="#222" />
  <path fill-rule="evenodd" clip-rule="evenodd" d="m67.9 86.7-7 8.4-5.1 6.2c-.4.5-2.4 2.2-2.4 2.8 0 .6 1.8 2.1 2 2.5l12.5 15 7-8.5 5-6.1c.4-.5 2.4-2.3 2.4-2.8 0-.6-1.8-2.1-2-2.5l-5-6-7.4-9Z" fill="#222" />
  <path fill-rule="evenodd" clip-rule="evenodd" d="m67.9 88.6-6.3 7.6-4.4 5.2c-.3.5-2.2 2.1-2.2 2.7 0 .6 1.6 2 2 2.4l4.3 5.2 6.6 8L74 112l4.4-5.3c.3-.4 2.2-2 2.2-2.6 0-.6-1.6-2-2-2.4l-4.2-5.2-6.6-8Z" fill="#F0F0F0" />
  <path fill-rule="evenodd" clip-rule="evenodd" d="M58.3 92.5h19.1c.2 0 0 19 0 20.8 0 .4.3 2.1 0 2.5-.2.3-2.5 0-3 0h-16c-.3 0-.1-1.9-.1-2.1V92.5Z" fill="#F0F0F0" />
  <path fill-rule="evenodd" clip-rule="evenodd" d="M67.9 92.5 63 98.3l-3.4 4c-.2.3-1.4 1.5-1.4 1.8 0 .4 1.2 1.5 1.4 1.8l3.4 4 4.8 5.9 4.7-5.8 3.4-4c.2-.4 1.5-1.5 1.5-1.9 0-.3-1.3-1.5-1.5-1.7l-3.4-4.1-4.7-5.8Z" fill="#222" />
  <path fill-rule="evenodd" clip-rule="evenodd" d="M91.9 80.9h-3.2l3.2 3.8V81Zm0 5.8c-1-1.4-2.1-2.6-3.2-3.9v3.8c0 .2 2.8 0 3.2 0v.1ZM43.8 81H47l-3.2 3.8V81Zm0 5.8 3.2-3.9v3.8c0 .2-2.8 0-3.2 0v.1Zm3.2 34.9h-3.2l3.2 3.8v-3.8Zm0 5.8-3.2-3.8v3.7c0 .2 2.8.1 3.2.1Zm41.7-5.8H92l-3.2 3.8v-3.8Zm0 5.8 3.2-3.8v3.7c0 .2-2.8.1-3.2.1ZM47 108h-3.2L47 112V108Zm0 5.8-3.2-3.8v3.8c0 .2 2.8 0 3.2 0Zm-3.2-19.4H47l-3.2 3.9v-3.9Zm0 5.9 3.2-3.9v3.8c0 .2-2.8 0-3.2 0Zm48-5.9h-3l3.1 3.9v-3.9Zm0 5.9-3-3.9v3.8c0 .2 2.7 0 3.1 0Zm-3 7.7h3.1l-3.2 3.9V108Zm0 5.8 3.1-3.8v3.8c0 .2-2.8 0-3.2 0Z" fill="#F0F0F0" />
  <path fill-rule="evenodd" clip-rule="evenodd" d="M56.6 23c-.6-1.8-1.3-3.6-1.7-5.2-.4-1.7-.7-5.6 1.3-6.3 2-.7 2.7 2.8 2.6 4.2 0 2-1 4.2-1.7 6l-.5 1.2Z" fill="#222" />
  <path fill-rule="evenodd" clip-rule="evenodd" d="M56.6 23c-1.6-.7-3.3-1.4-4.8-2.5-1.2-1-3.3-3.8-2-5.6 1-1.7 3.6.3 4.4 1.5 1.2 1.7 1.7 4 2.3 6l.1.6ZM56.6 23c1.7-.7 3.5-1.4 5-2.5 1.2-1 3.2-3.8 2-5.6-1.2-1.7-3.7.3-4.5 1.5-1.1 1.7-1.6 4.2-2.3 6.1l-.2.5Zm-4 .2c-1.4-.4-3-.3-3.8 1-.5.7-.5 3.3.9 2.8.2 0 .4-1.3.7-1.6.6-.4 1.6-.4 2.4-.4.9-.1 1.8 0 2.8-.2-.9-.7-2-1.2-3-1.6Zm8.1 0c1.4-.4 3-.3 3.8 1 .4.7.5 3.3-.9 2.8-.3 0-.5-1.3-.7-1.6-.6-.4-1.7-.4-2.4-.4-1-.1-2 0-2.8-.2.9-.7 2-1.2 3-1.6ZM55.6 27c.2 1.7 3 .8 1.6-1.5-.9-1.7-1.5-.1-1.6 1.4ZM79 23l-1.8-5.2c-.4-1.7-.6-5.6 1.4-6.3 2-.7 2.6 2.8 2.6 4.2 0 2-1 4.2-1.8 6l-.4 1.2Z" fill="#222" />
  <path fill-rule="evenodd" clip-rule="evenodd" d="M79.1 23c-1.6-.7-3.4-1.4-4.8-2.5-1.3-1-3.3-3.8-2.1-5.6 1.2-1.7 3.7.3 4.5 1.5 1.1 1.7 1.6 4 2.2 6l.2.6Zm0 0c1.6-.7 3.4-1.4 4.9-2.5 1.2-1 3.2-3.8 2-5.6-1.1-1.7-3.6.3-4.4 1.5-1.2 1.7-1.7 4.2-2.3 6.1l-.2.5Zm-4.1.2c-1.4-.4-3-.3-3.8 1-.4.7-.5 3.3 1 2.8.2 0 .4-1.3.6-1.6.6-.4 1.7-.4 2.4-.4 1-.1 2 0 2.8-.2-.9-.7-2-1.2-3-1.6Zm8.2 0c1.3-.4 2.9-.3 3.8 1 .4.7.5 3.3-.9 2.8-.3 0-.5-1.3-.8-1.6-.5-.4-1.6-.4-2.3-.4-1-.1-2 0-2.9-.2 1-.7 2-1.2 3-1.6ZM78 27c.2 1.7 3 .8 1.7-1.5-1-1.7-1.5-.1-1.7 1.4Zm23.6-4c-.7-1.8-1.4-3.6-1.8-5.2-.4-1.7-.7-5.6 1.3-6.3 2-.7 2.7 2.8 2.7 4.2-.1 2-1.1 4.2-1.8 6l-.4 1.2Z" fill="#222" />
  <path fill-rule="evenodd" clip-rule="evenodd" d="M101.6 23c-1.6-.7-3.4-1.4-4.9-2.5-1.2-1-3.3-3.8-2.1-5.6 1.2-1.7 3.7.3 4.5 1.5 1.2 1.7 1.7 4.2 2.3 6.1l.2.5Zm0 0c1.6-.7 3.4-1.4 4.8-2.5 1.3-1 3.3-3.8 2.1-5.6-1.2-1.7-3.7.3-4.5 1.5-1.1 1.7-1.7 4.2-2.3 6.1l-.1.5Zm-4.2.2c-1.3-.4-2.9-.3-3.7 1-.4.7-.6 3.3.8 2.8.3 0 .5-1.3.8-1.6.6-.4 1.6-.4 2.4-.4 1-.1 1.9 0 2.8-.2a10 10 0 0 0-3-1.6Zm8.2 0c1.4-.4 3-.3 3.8 1 .5.7.5 3.3-.9 2.8-.2 0-.4-1.3-.7-1.6-.6-.4-1.7-.4-2.4-.4-.9-.1-1.9 0-2.8-.2.8-.7 2-1.2 3-1.6Zm-5.1 3.8c.2 1.7 3 .8 1.7-1.5-1-1.7-1.6-.1-1.7 1.4Zm-66.2-4-1.9-5.2c-.4-1.7-.7-5.6 1.4-6.3 1.9-.7 2.6 2.8 2.6 4.2 0 2-1 4.2-1.7 6l-.5 1.2Z" fill="#222" />
  <path fill-rule="evenodd" clip-rule="evenodd" d="M34.2 23c-1.6-.7-3.3-1.4-4.8-2.5-1.3-1-3.3-3.8-2.1-5.6 1.2-1.7 3.6.3 4.4 1.5 1.2 1.7 1.7 4 2.3 6l.2.6Zm0 0c1.6-.7 3.4-1.4 4.8-2.5 1.4-1 3.4-3.8 2.2-5.6-1.2-1.7-3.7.3-4.5 1.5-1.1 1.7-1.7 4-2.3 6l-.2.6Zm-4.1.2c-1.4-.4-3-.3-3.8 1-.4.7-.5 3.3.9 2.8.3 0 .5-1.3.7-1.6.6-.4 1.7-.4 2.4-.4 1-.1 2 0 2.9-.2a10 10 0 0 0-3.1-1.6Zm8.2 0c1.3-.4 2.9-.3 3.8 1 .4.7.5 3.3-1 2.8-.2 0-.4-1.3-.7-1.6-.6-.4-1.6-.4-2.3-.4-1-.1-2 0-2.9-.2.9-.7 2-1.2 3.1-1.6ZM33.2 27c0 1.7 3 .8 1.6-1.5-1-1.7-1.5-.1-1.6 1.4Zm23.2 157.4a37 37 0 0 0-1.7 5.2c-.4 1.5-.7 5.5 1.3 6.3 2 .7 2.7-2.8 2.6-4.2 0-2-1-4.2-1.7-6.1l-.5-1.2Z" fill="#222" />
  <path fill-rule="evenodd" clip-rule="evenodd" d="M56.4 184.4c-1.6.7-3.3 1.4-4.8 2.4-1.2 1-3.3 3.8-2 5.6 1 1.7 3.6-.3 4.4-1.5 1.2-1.7 1.7-4 2.3-6l.1-.5ZM56.4 184.4c1.7.7 3.5 1.4 5 2.4 1.2 1 3.2 3.8 2 5.6-1.2 1.7-3.7-.3-4.5-1.5-1.1-1.7-1.7-4.2-2.3-6.1l-.2-.4Zm-4-.3c-1.4.4-3 .3-3.8-1-.5-.7-.5-3.3.9-2.8.2.1.4 1.3.7 1.5.6.5 1.6.5 2.4.6h2.8c-.9.8-2 1.3-3 1.7Zm8.1 0c1.4.4 3 .3 3.8-1 .4-.7.5-3.3-.9-2.8-.3.1-.5 1.3-.7 1.5-.6.5-1.7.5-2.4.6h-2.8c.9.8 2 1.3 3 1.7Zm-5.1-3.8c.2-1.7 3-.8 1.6 1.5-.9 1.7-1.5.1-1.6-1.4v-.1Zm23.5 4-1.8 5.3c-.4 1.5-.6 5.5 1.4 6.3 2 .7 2.6-2.8 2.6-4.2 0-2-1-4.2-1.8-6.1l-.4-1.2Z" fill="#222" />
  <path fill-rule="evenodd" clip-rule="evenodd" d="M79 184.4c-1.7.7-3.5 1.4-4.9 2.4-1.3 1-3.3 3.8-2.1 5.6 1.2 1.7 3.7-.3 4.5-1.5 1.1-1.7 1.6-4.2 2.3-6.1l.1-.4Zm0 0c1.5.7 3.3 1.4 4.8 2.4 1.2 1 3.2 3.8 2 5.6-1.1 1.7-3.6-.3-4.4-1.5-1.2-1.7-1.7-4.2-2.3-6.1l-.2-.4Zm-4.2-.3c-1.4.4-2.9.3-3.8-1-.4-.7-.5-3.3 1-2.8.2.1.4 1.3.6 1.5.6.5 1.7.5 2.4.6h2.8c-.9.8-2 1.3-3 1.7Zm8.2 0c1.3.4 2.9.3 3.8-1 .4-.7.5-3.3-.9-2.8-.3.1-.5 1.3-.8 1.5-.5.5-1.6.5-2.3.6h-2.9c1 .8 2 1.3 3 1.7Zm-5.2-3.8c.2-1.7 3-.8 1.7 1.5-1 1.7-1.5.1-1.7-1.4v-.1Zm23.6 4c-.7 1.7-1.4 3.6-1.8 5.3-.4 1.5-.7 5.5 1.3 6.3 2 .7 2.7-2.8 2.7-4.2-.1-2-1-4.2-1.8-6.1l-.4-1.2Z" fill="#222" />
  <path fill-rule="evenodd" clip-rule="evenodd" d="M101.4 184.4c-1.6.7-3.4 1.4-4.9 2.4-1.2 1-3.3 3.8-2.1 5.6 1.2 1.7 3.7-.3 4.5-1.5 1.1-1.7 1.7-4 2.3-6l.2-.5Z" fill="#222" />
  <path fill-rule="evenodd" clip-rule="evenodd" d="M101.4 184.4c1.6.7 3.4 1.4 4.8 2.4 1.3 1 3.3 3.8 2.1 5.6-1.2 1.7-3.7-.3-4.5-1.5-1.1-1.7-1.6-4-2.2-6l-.2-.5Zm-4.2-.3c-1.3.4-2.9.3-3.7-1-.4-.7-.6-3.3.8-2.8.3.1.5 1.3.8 1.5.6.5 1.6.5 2.4.6h2.8c-.9.8-2 1.3-3 1.7Zm8.2 0c1.4.4 3 .3 3.8-1 .5-.7.5-3.3-.9-2.8-.2.1-.4 1.3-.7 1.5-.6.5-1.7.5-2.4.6h-2.8c.8.8 2 1.3 3 1.7Zm-5.1-3.8c.2-1.7 3-.8 1.7 1.5-1 1.7-1.6.1-1.7-1.4v-.1Zm-66.3 4-1.8 5.3c-.4 1.5-.7 5.5 1.4 6.3 1.9.7 2.6-2.8 2.6-4.2 0-2-1-4.2-1.7-6.1l-.5-1.2Z" fill="#222" />
  <path fill-rule="evenodd" clip-rule="evenodd" d="M34 184.4c-1.6.7-3.3 1.4-4.8 2.4-1.3 1-3.3 3.8-2.1 5.6 1.2 1.7 3.6-.3 4.4-1.5 1.2-1.7 1.7-4 2.3-6l.2-.5Zm0 0c1.6.7 3.4 1.4 4.8 2.4s3.4 3.8 2.2 5.6c-1.2 1.7-3.7-.3-4.5-1.5-1.2-1.7-1.7-4.2-2.3-6.1l-.2-.4ZM30 184c-1.4.4-3 .3-3.8-1-.4-.7-.5-3.3.9-2.8.3.1.5 1.3.7 1.5.6.5 1.7.5 2.4.6H33c-1 .8-2 1.3-3.1 1.7Zm8.2 0c1.3.4 2.9.3 3.8-1 .4-.7.5-3.3-1-2.8-.2.1-.4 1.3-.7 1.5-.6.5-1.6.5-2.3.6H35c.9.8 2 1.3 3.1 1.7Zm-5.1-3.8c0-1.7 3-.8 1.6 1.5-1 1.7-1.5.1-1.6-1.4v-.1Zm85.2 5.3c1.6.8 3.2 1.8 5 2.3 1.5.4 4.3 0 4.6-2 .3-2.2-2.5-3-4-2.9-1.8.2-3.8 1.5-5.4 2.4l-.2.2Z" fill="#222" />
  <path fill-rule="evenodd" clip-rule="evenodd" d="M118.2 185.6c.7 2.1 2.7 10.4 6.4 8.5 1.7-1 .3-4.2-.7-5.3-1.3-1.4-3.5-2.3-5.2-3l-.5-.3Zm0 0c.6-2.2 2.6-10.5 6.4-8.6 1.7 1 .3 4.1-.7 5.2-1.3 1.5-3.5 2.3-5.2 3.1-.2 0-.3.2-.5.3Zm-.2 5c.3 1.3.4 3.4-.8 4.5-.8.7-2.7.4-2.3-1 0-.4 1-.6 1.2-1 .5-.7.5-2 .5-2.8v-3.5c.7 1.2 1.2 2.4 1.4 3.7Zm0-10c.3-1.3.4-3.4-.8-4.5-.8-.7-2.7-.5-2.3 1 0 .3 1 .6 1.2 1 .5.7.5 2 .5 2.8v3.4c.7-1.1 1.2-2.5 1.4-3.6Zm-3.1 6.2c-1.5-.3-.8-3.6 1.2-2 1.3 1 .3 1.8-1.2 2Zm3.3-28.4c1.6.8 3.2 1.9 5 2.4 1.5.4 4.3 0 4.6-2.1.3-2.1-2.5-3-4-2.8-1.8.2-3.8 1.5-5.4 2.4l-.2.1Z" fill="#222" />
  <path fill-rule="evenodd" clip-rule="evenodd" d="M118.2 158.4c.6 2.2 2.6 10.5 6.4 8.5 1.7-1 .3-4-.7-5.1-1.3-1.6-3.5-2.4-5.2-3.2l-.5-.2Zm0 0c.7-2.2 2.7-10.5 6.4-8.5 1.7.9.3 4-.7 5.1-1.3 1.6-3.5 2.4-5.2 3.2l-.5.2Zm-.2 5c.3 1.4.4 3.5-.8 4.5-.8.7-2.7.4-2.3-1 0-.3 1-.6 1.2-1 .5-.6.5-2 .5-2.7v-3.5c.7 1 1.2 2.4 1.4 3.7Zm0-9.9c.3-1.4.4-3.5-.8-4.5-.8-.7-2.8-.5-2.3 1 0 .3 1 .6 1.2 1 .5.6.5 2 .5 2.7v3.4c.7-1.1 1.2-2.3 1.4-3.6Zm-3.1 6.2c-1.5-.3-.8-3.7 1.2-2 1.3 1 .3 1.8-1.2 2Zm3.3-28.4c1.6.8 3.2 1.8 5 2.3 1.5.4 4.3 0 4.6-2 .3-2.2-2.5-3-4-2.9-1.8.2-3.8 1.5-5.4 2.4l-.2.2Z" fill="#222" />
  <path fill-rule="evenodd" clip-rule="evenodd" d="M118.2 131.3c.6 2.1 2.6 10.4 6.4 8.5 1.7-1 .3-4.1-.7-5.2-1.3-1.5-3.5-2.4-5.2-3.1l-.5-.3Z" fill="#222" />
  <path fill-rule="evenodd" clip-rule="evenodd" d="M118.2 131.3c.6-2.2 2.6-10.5 6.4-8.6 1.7 1 .3 4.1-.7 5.2-1.3 1.5-3.5 2.3-5.2 3.1-.2 0-.3.2-.5.3Zm-.2 5c.3 1.3.4 3.4-.8 4.5-.8.7-2.7.4-2.3-1 0-.4 1-.6 1.2-1 .5-.7.5-2 .5-2.8v-3.5a13 13 0 0 1 1.4 3.7Zm0-10c.3-1.3.4-3.4-.8-4.5-.8-.7-2.7-.5-2.3 1 0 .3 1 .6 1.2 1 .5.7.5 2 .5 2.8v3.5a13 13 0 0 0 1.4-3.7Zm-3.1 6.3c-1.5-.4-.8-3.7 1.2-2 1.3 1 .3 1.7-1.2 2Zm3.3-55.7c1.6.9 3.2 2 5 2.4 1.5.4 4.3 0 4.6-2 .3-2.2-2.5-3-4-2.9-1.8.2-3.8 1.5-5.4 2.5h-.2Z" fill="#222" />
  <path fill-rule="evenodd" clip-rule="evenodd" d="M118.2 77c.7 2.1 2.7 10.4 6.4 8.5 1.7-1 .3-4.2-.7-5.2-1.3-1.5-3.5-2.4-5.2-3.1l-.5-.2Zm0 0c.6-2.2 2.6-10.5 6.4-8.6 1.7 1 .3 4.1-.7 5.2-1.3 1.5-3.5 2.3-5.2 3.1-.2 0-.3.2-.5.3Zm-.2 5c.3 1.3.4 3.4-.8 4.5-.8.7-2.7.4-2.3-1.2 0-.2 1-.6 1.3-1 .4-.6.4-2 .4-2.7v-3.3c.7 1.1 1.2 2.3 1.4 3.6Zm0-10c.3-1.3.4-3.4-.8-4.5-.8-.7-2.7-.5-2.3 1 0 .3 1 .6 1.2 1 .5.7.5 2 .5 2.8v3.4c.7-1.1 1.2-2.5 1.4-3.6Zm-3.1 6.3c-1.5-.4-.8-3.7 1.2-2 1.3 1 .3 1.7-1.2 2Zm3.3-28.5c1.6.8 3.2 1.9 5 2.4 1.5.4 4.3 0 4.6-2.1.3-2.1-2.5-3-4-2.8-1.8.2-3.8 1.5-5.4 2.4h-.2v.1Z" fill="#222" />
  <path fill-rule="evenodd" clip-rule="evenodd" d="M118.2 49.8c.6 2.2 2.6 10.5 6.4 8.5 1.7-1 .3-4-.7-5.1-1.3-1.6-3.5-2.4-5.2-3.2l-.5-.2Zm0 0c.7-2.2 2.7-10.5 6.4-8.5 1.7.9.3 4-.7 5.1-1.3 1.6-3.5 2.4-5.2 3.2l-.5.2Zm-.2 5c.3 1.4.4 3.5-.8 4.5-.8.7-2.8.4-2.3-1 0-.3 1-.6 1.2-1 .5-.6.5-2 .5-2.7V51c.7 1 1.2 2.4 1.4 3.7Zm0-9.9c.3-1.4.4-3.5-.8-4.5-.8-.7-2.7-.5-2.3 1 0 .3 1 .6 1.2 1 .5.6.5 2 .5 2.7v3.4c.7-1.1 1.2-2.3 1.4-3.6Zm-3.1 6.2c-1.5-.3-.8-3.7 1.2-2 1.3 1 .3 1.7-1.2 2Zm3.3-28.5c1.6.9 3.2 2 5 2.4 1.5.4 4.3 0 4.6-2 .3-2.2-2.5-3-4-2.9-1.8.2-3.8 1.5-5.4 2.5h-.2Z" fill="#222" />
  <path fill-rule="evenodd" clip-rule="evenodd" d="M118.2 22.6c.6 2.2 2.6 10.5 6.4 8.6 1.7-1 .3-4.1-.7-5.2-1.3-1.5-3.5-2.4-5.2-3.1l-.5-.3ZM118.2 22.6c.6-2.1 2.6-10.4 6.4-8.5 1.7 1 .3 4.1-.7 5.2-1.3 1.5-3.5 2.3-5.2 3.1l-.5.2Zm-.2 5c.3 1.4.4 3.5-.8 4.6-.8.7-2.7.4-2.3-1 0-.4 1-.6 1.2-1 .5-.7.5-2 .5-2.8V24a13 13 0 0 1 1.4 3.7Zm0-9.8c.3-1.4.4-3.5-.8-4.6-.8-.7-2.7-.5-2.3 1 0 .3 1 .6 1.2 1 .5.7.5 2 .5 2.8v3.5a13 13 0 0 0 1.4-3.7Zm-3.1 6.2c-1.5-.4-.8-3.7 1.2-2 1.3 1 .3 1.7-1.2 2Zm3.3 80.1c1.6.8 3.2 1.9 5 2.4 1.5.4 4.3 0 4.6-2.1.3-2.1-2.5-3-4-2.8-1.8.2-3.8 1.5-5.4 2.4h-.2v.1Z" fill="#222" />
  <path fill-rule="evenodd" clip-rule="evenodd" d="M118.2 104.1c.6 2.2 2.6 10.5 6.4 8.5 1.7-1 .3-4-.7-5.1-1.3-1.6-3.5-2.4-5.2-3.2l-.5-.2ZM118.2 104.1c.6-2.2 2.6-10.5 6.4-8.5 1.7.9.3 4-.7 5.1-1.3 1.6-3.5 2.3-5.2 3.2l-.5.2Zm-.2 5c.3 1.4.4 3.5-.8 4.5-.8.7-2.7.4-2.3-1 0-.3 1-.6 1.2-1 .5-.6.5-2 .5-2.7v-3.5c.7 1.1 1.2 2.4 1.4 3.7Zm0-9.9c.3-1.4.4-3.5-.8-4.5-.8-.7-2.7-.5-2.3 1 0 .3 1 .6 1.2 1 .5.6.5 2 .5 2.7v3.5a13 13 0 0 0 1.4-3.7Zm-3.1 6.2c-1.5-.3-.8-3.7 1.2-2 1.3 1 .3 1.7-1.2 2Zm-97.3 80.2c-1.7.8-3.3 1.8-5 2.3-1.5.4-4.4 0-4.7-2-.3-2.2 2.5-3 4-2.9 1.8.2 3.8 1.5 5.5 2.4v.2h.2Z" fill="#222" />
  <path fill-rule="evenodd" clip-rule="evenodd" d="M17.6 185.6c-.7 2.1-2.7 10.4-6.5 8.5-1.7-1-.3-4.2.7-5.3 1.3-1.4 3.5-2.3 5.2-3l.6-.3Zm0 0c-.7-2.3-2.7-10.5-6.5-8.6-1.7 1-.3 4.1.7 5.2 1.3 1.5 3.5 2.3 5.2 3.1l.6.3Zm.2 5c-.4 1.3-.4 3.4.8 4.5.7.7 2.7.4 2.2-1 0-.4-1-.6-1.2-1-.4-.7-.4-2-.4-2.8l-.1-3.5c-.6 1.2-1 2.4-1.3 3.7Zm0-10c-.4-1.3-.4-3.4.8-4.5.7-.7 2.7-.5 2.2 1 0 .3-1 .6-1.2 1-.4.7-.4 2-.4 2.8l-.1 3.4c-.7-1.1-1-2.5-1.3-3.6Zm3.1 6.2c1.4-.3.8-3.6-1.3-2-1.2 1-.3 1.8 1.3 2Zm-3.3-28.4c-1.7.8-3.3 1.9-5 2.4-1.5.4-4.4 0-4.7-2.1-.3-2.1 2.5-3 4-2.8 1.8.2 3.8 1.5 5.5 2.4v.1h.2Z" fill="#222" />
  <path fill-rule="evenodd" clip-rule="evenodd" d="M17.6 158.4c-.7 2.2-2.7 10.5-6.5 8.5-1.7-1-.3-4 .7-5.1 1.3-1.6 3.5-2.4 5.2-3.2l.6-.2ZM17.6 158.4c-.7-2.2-2.7-10.5-6.5-8.5-1.7.9-.3 4 .7 5.1 1.3 1.6 3.5 2.4 5.2 3.2l.6.2Zm.2 5c-.4 1.4-.4 3.5.8 4.5.7.7 2.7.4 2.2-1 0-.3-1-.6-1.2-1-.4-.6-.4-2-.4-2.7l-.1-3.5c-.7 1-1 2.4-1.3 3.7Zm0-9.9c-.4-1.4-.4-3.5.8-4.5.7-.7 2.7-.5 2.2 1 0 .3-1 .6-1.2 1-.4.6-.4 2-.4 2.7l-.1 3.4c-.6-1.1-1-2.3-1.3-3.6Zm3.1 6.2c1.4-.3.8-3.7-1.3-2-1.2 1-.3 1.8 1.3 2Zm-3.3-28.4c-1.7.8-3.3 1.8-5 2.3-1.5.4-4.4 0-4.7-2-.3-2.2 2.5-3 4-2.9 1.8.2 3.8 1.5 5.5 2.4v.2h.2Z" fill="#222" />
  <path fill-rule="evenodd" clip-rule="evenodd" d="M17.6 131.3c-.7 2.1-2.7 10.4-6.5 8.5-1.7-1-.3-4.1.7-5.2 1.3-1.5 3.5-2.4 5.2-3.1l.6-.3Z" fill="#222" />
  <path fill-rule="evenodd" clip-rule="evenodd" d="M17.6 131.3c-.7-2.2-2.7-10.5-6.5-8.6-1.7 1-.3 4.1.7 5.2 1.3 1.5 3.5 2.3 5.2 3.1l.6.3Zm.2 5c-.4 1.3-.4 3.4.8 4.5.7.7 2.7.4 2.2-1 0-.4-1-.6-1.2-1-.4-.7-.4-2-.4-2.8l-.1-3.5a13 13 0 0 0-1.3 3.7Zm0-10c-.4-1.3-.4-3.4.8-4.5.7-.7 2.7-.5 2.2 1 0 .3-1 .6-1.2 1-.4.7-.4 2-.4 2.8L19 130a13 13 0 0 1-1.3-3.7Zm3.1 6.3c1.4-.4.8-3.7-1.3-2-1.2 1-.3 1.7 1.3 2Zm-3.3-55.7c-1.7.9-3.3 2-5 2.4-1.5.4-4.4 0-4.7-2-.3-2.2 2.5-3 4-2.9 1.8.2 3.8 1.5 5.5 2.5h.2Z" fill="#222" />
  <path fill-rule="evenodd" clip-rule="evenodd" d="M17.6 77c-.7 2.1-2.7 10.4-6.5 8.5-1.7-1-.3-4.2.7-5.2 1.3-1.5 3.5-2.4 5.2-3.1l.6-.2Zm0 0c-.7-2.2-2.7-10.5-6.5-8.6-1.7 1-.3 4.1.7 5.2 1.3 1.5 3.5 2.3 5.2 3.1l.6.3Zm.2 5c-.4 1.3-.4 3.4.8 4.5.8.7 2.6.4 2.2-1.2 0-.2-1-.6-1.3-1-.4-.6-.3-2-.3-2.7-.1-1.2 0-2.3-.2-3.3-.6 1.1-1 2.3-1.3 3.6Zm0-10c-.4-1.3-.4-3.4.8-4.5.7-.7 2.7-.5 2.2 1 0 .3-1 .6-1.2 1-.4.7-.4 2-.4 2.8l-.1 3.4c-.7-1.1-1-2.5-1.3-3.6Zm3.1 6.3c1.4-.4.8-3.7-1.3-2-1.2 1-.3 1.7 1.3 2Zm-3.3-28.5c-1.7.8-3.3 1.9-5 2.4-1.5.4-4.4 0-4.7-2.1-.3-2.1 2.5-3 4-2.8 1.8.2 3.8 1.5 5.5 2.4l.2.1Z" fill="#222" />
  <path fill-rule="evenodd" clip-rule="evenodd" d="M17.6 49.8c-.7 2.2-2.7 10.5-6.5 8.5-1.7-1-.3-4 .7-5.1 1.3-1.6 3.5-2.4 5.2-3.2l.6-.2Zm0 0c-.7-2.2-2.7-10.5-6.5-8.5-1.7.9-.3 4 .7 5.1 1.3 1.6 3.5 2.4 5.2 3.2l.6.2Zm.2 5c-.4 1.4-.4 3.5.8 4.5.7.7 2.7.4 2.2-1 0-.3-1-.6-1.2-1-.4-.6-.4-2-.4-2.7L19 51c-.7 1-1 2.4-1.3 3.7Zm0-9.9c-.4-1.4-.4-3.5.8-4.5.7-.7 2.7-.5 2.2 1 0 .3-1 .6-1.2 1-.4.6-.4 2-.4 2.7l-.1 3.4c-.6-1.1-1-2.3-1.3-3.6Zm3.1 6.2c1.4-.3.8-3.7-1.3-2-1.2 1-.3 1.7 1.3 2Zm-3.3-28.5c-1.7.9-3.3 2-5 2.4-1.5.4-4.4 0-4.7-2-.3-2.2 2.5-3 4-2.9 1.8.2 3.8 1.5 5.5 2.5h.2Z" fill="#222" />
  <path fill-rule="evenodd" clip-rule="evenodd" d="M17.6 22.6c-.7 2.2-2.7 10.5-6.5 8.6-1.7-1-.3-4.1.7-5.2 1.3-1.5 3.5-2.4 5.2-3.1l.6-.3ZM17.6 22.6c-.7-2.1-2.7-10.4-6.5-8.5-1.7 1-.3 4.1.7 5.2 1.3 1.5 3.5 2.3 5.2 3.1l.6.2Zm.2 5c-.4 1.4-.4 3.5.8 4.6.7.7 2.7.4 2.2-1 0-.4-1-.6-1.2-1-.4-.7-.4-2-.4-2.8L19 24a13 13 0 0 0-1.3 3.7Zm0-9.8c-.4-1.4-.4-3.5.8-4.6.7-.7 2.7-.5 2.2 1 0 .3-1 .6-1.2 1-.4.7-.4 2-.4 2.8l-.1 3.5a13 13 0 0 1-1.3-3.7Zm3.1 6.2c1.4-.4.8-3.7-1.3-2-1.2 1-.3 1.7 1.3 2ZM17.6 104c-1.7.8-3.3 1.9-5 2.4-1.5.4-4.4 0-4.7-2.1-.3-2.1 2.5-3 4-2.8 1.8.2 3.8 1.5 5.5 2.4l.2.1Z" fill="#222" />
  <path fill-rule="evenodd" clip-rule="evenodd" d="M17.6 104.1c-.7 2.2-2.7 10.5-6.5 8.5-1.7-1-.3-4 .7-5.1 1.3-1.6 3.5-2.4 5.2-3.2l.6-.2ZM17.6 104.1c-.7-2.2-2.7-10.5-6.5-8.5-1.7.9-.3 4 .7 5.1 1.3 1.6 3.5 2.3 5.2 3.2l.6.2Zm.2 5c-.4 1.4-.4 3.5.8 4.5.7.7 2.7.4 2.2-1 0-.3-1-.6-1.2-1-.4-.6-.4-2-.4-2.7l-.1-3.5c-.6 1.1-1 2.4-1.3 3.7Zm0-9.9c-.4-1.4-.4-3.5.8-4.5.7-.7 2.7-.5 2.2 1 0 .3-1 .6-1.2 1-.4.6-.4 2-.4 2.7L19 103a13 13 0 0 1-1.3-3.7Zm3.1 6.2c1.3-.3.8-3.7-1.3-2-1.2 1-.3 1.7 1.3 2ZM61.5 96.4c1.3 0 12.8-.1 12.8 0v13c0 .4.2 2.2 0 2.5-.9.9-12.8-.5-12.8-.1V96.4Z" fill="#222" />
  <path fill-rule="evenodd" clip-rule="evenodd" d="m62.3 99.3 1.6-2 .8 3-2.4-1Zm9.5-2 1.6 2-2.4 1 .8-3ZM72 111l1.6-2-2.4-1 .8 3Zm-8 0-1.6-1.9 2.4-1-.8 2.9Z" fill="#F0F0F0" />
  <path fill-rule="evenodd" clip-rule="evenodd" d="m67.9 96.4-1.6 5.7c-.2.7-4 1.7-4.8 2 .7.3 4.6 1.3 4.8 2.1l1.6 5.7 1.5-5.8c.2-.7 4-1.7 4.9-2-.8-.3-4.7-1.3-4.9-2L68 96.4Zm39.3 3-.8 3.6c-.2.5-2.8 1-3.2 1.1.4.2 3 .7 3.2 1.1l.8 3.8.7-3.8c.2-.5 2.8-.9 3.2-1.1-.4-.1-3-.6-3.2-1l-.6-3.8h-.1Zm0-13.7-.8 3.8c-.2.5-2.8.9-3.3 1 .5.2 3.1.7 3.3 1.1l.7 3.8.8-3.8c0-.4 2.7-.9 3.2-1-.4-.2-3.1-.6-3.2-1.1l-.8-3.8Zm0 27.1-.8 3.8c0 .4-2.7 1-3.2 1 .4.2 3.1.8 3.2 1.2l.8 3.8.7-3.8c.2-.5 2.8-1 3.3-1.1-.5-.2-3.1-.7-3.3-1l-.7-3.9ZM95.9 99.3l-.7 3.8c-.1.4-2.8.9-3.3 1 .5.2 3.2.7 3.3 1.1l.7 3.8.8-3.8c0-.5 2.7-.9 3.3-1.1-.6-.1-3.2-.6-3.3-1l-.8-3.8Zm0-13.6-.7 3.8c0 .5-2.7 1-3.2 1 .5.3 3.1.8 3.2 1.2l.8 3.8.7-3.8c.2-.5 2.8-.9 3.3-1.1-.5-.1-3.1-.6-3.3-1l-.7-3.8-.1-.1Zm0 27.1-.8 3.8c0 .4-2.6 1-3.2 1 .5.2 3.2.8 3.2 1.2l.8 3.8.8-3.8c.1-.5 2.7-1 3.3-1.1-.5-.2-3.2-.7-3.3-1l-.8-3.9ZM73.4 139l-.7 3.8c-.1.5-2.7 1-3.2 1.1.5.2 3 .6 3.2 1l.7 3.8.9-3.7c0-.5 2.7-1 3.2-1-.5-.3-3.2-.8-3.2-1.2l-.9-3.8Zm-11.1 0-.8 3.8c-.1.5-2.7 1-3.2 1.1.4.2 3.1.6 3.2 1l.8 3.8.7-3.7c.1-.5 2.8-1 3.3-1-.5-.3-3.2-.8-3.3-1.2l-.7-3.8Zm22.4 0-.8 3.8c0 .4-2.7 1-3.2 1 .4.2 3.1.7 3.2 1l.8 4 .8-4c0-.3 2.7-.8 3.2-1-.5 0-3.1-.6-3.2-1l-.8-3.8ZM51 139l-.7 3.9c-.1.4-2.8.9-3.2 1 .4.2 3 .6 3.2 1l.8 3.8.7-3.7c.2-.5 2.8-1 3.2-1-.4-.2-3-.7-3.2-1.1l-.7-3.8Zm56.1 0-.8 3.8c0 .5-2.7 1-3.2 1.1.5.2 3.1.6 3.2 1l.8 3.8.8-3.7c0-.5 2.7-1 3.2-1-.4-.3-3.1-.8-3.2-1.2l-.8-3.8ZM96 139l-.8 3.8c-.1.5-2.7 1-3.2 1.1.5.2 3.1.6 3.2 1l.8 3.8.8-3.7c.1-.5 2.7-1 3.2-1-.5-.3-3-.8-3.2-1.2l-.8-3.8Zm-22.5 13.6-.7 3.8c-.1.5-2.7.9-3.2 1 .5.2 3 .7 3.2 1.1l.7 3.8.9-3.8c0-.4 2.7-.9 3.2-1-.5-.2-3.2-.7-3.2-1.1l-.9-3.8Zm-11.1 0-.8 3.8c-.1.5-2.7.9-3.2 1 .4.2 3.1.7 3.2 1.1l.8 3.8.7-3.8c.1-.4 2.8-.9 3.3-1-.5-.2-3.2-.7-3.3-1.1l-.7-3.8Zm22.4 0-.8 3.8c0 .4-2.7.9-3.2 1 .4.2 3.1.7 3.2 1l.8 4 .8-4c0-.3 2.7-.8 3.2-1-.5-.1-3.1-.6-3.2-1l-.8-3.8Zm-33.7 0-.7 3.8c-.1.5-2.8 1-3.2 1 .4.2 3 .7 3.2 1.1l.7 3.8.8-3.8c0-.4 2.7-.9 3.2-1-.5-.2-3.1-.7-3.2-1l-.8-3.8Zm56.1 0-.8 3.8c0 .5-2.7.9-3.2 1 .5.2 3.1.7 3.2 1.1l.8 3.8.8-3.8c0-.4 2.7-.9 3.2-1-.4-.2-3.1-.7-3.2-1.1l-.8-3.8Zm-11.2 0-.8 3.8c-.1.5-2.7.9-3.2 1 .5.2 3.1.7 3.2 1.1l.8 3.8.8-3.8c.1-.4 2.7-.9 3.2-1-.5-.2-3-.7-3.2-1.1l-.8-3.8Zm-22.5 13.6-.7 3.7c-.1.5-2.7 1-3.2 1.2.5.1 3 .5 3.2 1l.7 3.8.9-3.8c0-.5 2.7-.9 3.2-1-.5-.2-3.2-.7-3.2-1.2l-.9-3.7Zm-11.1 0-.8 3.7c-.1.5-2.7 1-3.2 1.2.4.1 3.1.5 3.2 1l.8 3.8.7-3.8c.1-.5 2.8-.9 3.3-1-.5-.2-3.2-.7-3.3-1.2l-.7-3.7Zm22.4 0-.8 3.7c0 .5-2.7 1-3.2 1 .4.2 3.1.8 3.2 1.1l.8 3.9.8-3.9c0-.4 2.7-.9 3.2-1-.5-.1-3.1-.6-3.2-1l-.8-3.8Zm-33.7 0-.6 3.8c-.2.4-2.8 1-3.3 1 .5.2 3.1.7 3.3 1.1l.8 3.8.7-3.8c.1-.4 2.7-.9 3.2-1-.5-.2-3-.7-3.2-1l-.7-3.9H51Zm56.1 0-.8 3.7c0 .5-2.7 1-3.2 1.2.5.1 3.1.5 3.2 1l.8 3.8.8-3.8c0-.5 2.7-.9 3.2-1-.4-.2-3.1-.7-3.2-1.2l-.8-3.7Zm-11.2 0-.7 3.8c-.1.5-2.7 1-3.2 1.1.5.2 3 .6 3.2 1l.7 3.9.8-3.8c.2-.5 2.8-1 3.3-1-.5-.3-3.1-.8-3.3-1.2l-.8-3.8Zm-22.5-39.8-.7 3.8c-.1.5-2.7 1-3.2 1 .5.3 3 .7 3.2 1.2l.7 3.7.9-3.7c0-.5 2.7-1 3.2-1.2-.5 0-3.2-.5-3.2-1l-.9-3.8Zm-11.1 0-.8 3.8c-.1.5-2.7 1-3.2 1 .4.3 3.1.7 3.2 1.2l.8 3.7.7-3.7c.1-.5 2.8-1 3.3-1.2-.5 0-3.2-.5-3.3-1l-.7-3.8Zm22.4 0-.8 3.8c0 .4-2.7 1-3.2 1 .4.2 3.1.7 3.2 1.1l.8 3.8.8-3.8c0-.4 2.7-1 3.2-1-.5-.2-3.1-.7-3.2-1.1l-.8-3.8Zm-33.7 0-.7 3.9c-.1.4-2.8.9-3.2 1 .4.2 3 .6 3.2 1l.8 3.8.7-3.7c.2-.5 2.8-1 3.2-1-.4-.2-3-.8-3.2-1.1l-.7-3.9Zm56.1 0-.8 3.8c0 .5-2.7 1-3.2 1 .5.3 3.1.7 3.2 1.2l.8 3.7.8-3.7c0-.5 2.7-1 3.2-1.2-.4 0-3.1-.5-3.2-1l-.8-3.8Zm-11.2 0-.8 3.8c-.1.5-2.7 1-3.2 1 .5.3 3.1.7 3.2 1.2l.8 3.7.8-3.7c.1-.5 2.7-1 3.2-1.2-.5 0-3-.5-3.2-1l-.8-3.8ZM62.3 72.1l-.8 3.8c-.1.5-2.7 1-3.2 1.1.4.2 3.1.6 3.2 1l.8 3.8.7-3.7c.1-.5 2.8-1 3.3-1-.5-.3-3.2-.8-3.3-1.2l-.7-3.8Zm-11.3 0-.8 3.8c0 .5-2.7 1-3.2 1.1.5.2 3.2.6 3.2 1l.8 3.8.8-3.7c0-.5 2.7-1 3.2-1-.4-.3-3.1-.8-3.2-1.2l-.8-3.8Zm33.7 0-.8 3.8c0 .5-2.7 1-3.2 1.1.5.2 3.1.6 3.2 1l.8 3.8.8-3.7c0-.5 2.7-1 3.2-1-.5-.3-3.1-.8-3.2-1.2l-.8-3.8Zm-11.3 0-.7 3.8c-.1.5-2.7 1-3.3 1.1.6.2 3.2.6 3.3 1l.7 3.8.9-3.7c0-.5 2.6-1 3.2-1-.5-.3-3.2-.8-3.2-1.2l-.9-3.8ZM51 58.5l-.8 3.8c0 .5-2.7 1-3.2 1 .5.3 3.2.8 3.2 1.2l.8 3.8.8-3.8c0-.5 2.7-1 3.2-1.1-.4-.2-3.1-.6-3.2-1l-.8-3.9Zm11.3 0-.8 3.8c-.1.5-2.7 1-3.2 1.1.4.2 3.1.6 3.2 1l.8 3.9.7-3.8c.1-.5 2.8-1 3.3-1-.5-.3-3.2-.8-3.3-1.2l-.7-3.8Zm11.1 0-.7 3.8c-.1.5-2.7 1-3.2 1.1.5.2 3 .6 3.2 1l.7 3.9.9-3.8c0-.5 2.7-1 3.2-1-.5-.3-3.2-.8-3.2-1.2l-.9-3.8Zm11.3 0-.8 3.8c0 .5-2.7 1-3.2 1.1.5.2 3.1.6 3.2 1l.8 3.9.8-3.8c0-.5 2.7-1 3.2-1-.5-.3-3.1-.8-3.2-1.2l-.8-3.8ZM107 72.1l-.7 3.8c-.2.4-2.8 1-3.3 1 .5.2 3.1.7 3.3 1.1l.7 3.8.8-3.8c0-.4 2.7-1 3.2-1-.4-.2-3.1-.7-3.2-1.1l-.8-3.8Zm0-13.6-.7 3.8c-.2.5-2.8 1-3.2 1.1.4.2 3 .6 3.2 1l.8 3.9.7-3.8c.2-.5 2.8-1 3.2-1-.4-.3-3-.8-3.2-1.2l-.7-3.8ZM96 72.1 95 76c0 .4-2.6 1-3.2 1 .5.2 3.2.7 3.2 1.1l.8 3.8.8-3.8c.1-.4 2.7-1 3.3-1-.6-.2-3.2-.7-3.3-1.1l-.8-3.8Zm0-13.6-.7 3.8c-.1.5-2.8 1-3.3 1.1.5.2 3.2.6 3.3 1l.7 3.9.8-3.8c0-.5 2.7-1 3.3-1-.6-.3-3.2-.8-3.3-1.2l-.8-3.8ZM62.3 45l-.8 3.7c-.1.5-2.7 1-3.2 1.2.4.1 3.1.5 3.2 1l.8 3.8.7-3.8c.1-.5 2.8-.9 3.3-1-.5-.2-3.2-.7-3.3-1.2l-.7-3.7ZM51 45l-.8 3.7c0 .5-2.7 1-3.2 1.2.5.1 3.2.5 3.2 1l.8 3.8.8-3.8c0-.5 2.7-.9 3.2-1-.4-.2-3.1-.7-3.2-1.2L51 45Zm33.7 0-.8 3.7c0 .5-2.7 1-3.2 1.2.5.1 3.1.5 3.2 1l.8 3.8.8-3.8c0-.5 2.7-.9 3.2-1-.5-.2-3.1-.7-3.2-1.2l-.8-3.7Zm-11.3 0-.7 3.7c-.1.5-2.7 1-3.3 1.2.6.1 3.2.5 3.3 1l.7 3.8.9-3.8c0-.5 2.6-.9 3.2-1-.5-.2-3.2-.7-3.2-1.2l-.9-3.7ZM51 31.5l-.8 3.7c0 .5-2.7.9-3.2 1 .5.2 3.2.7 3.2 1.1l.8 3.8.8-3.8c0-.4 2.7-.9 3.2-1-.4-.2-3.1-.6-3.2-1.1l-.8-3.7Zm11.3 0-.8 3.7c-.1.5-2.7.9-3.2 1 .4.2 3.1.7 3.2 1.1l.8 3.8.7-3.8c.1-.4 2.8-.9 3.3-1-.5-.2-3.2-.7-3.3-1.1l-.7-3.7Zm11.1 0-.7 3.7c-.1.5-2.7.9-3.2 1 .5.2 3 .7 3.2 1.1l.7 3.8.9-3.8c0-.4 2.7-.9 3.2-1-.5-.2-3.2-.7-3.2-1.1l-.9-3.8Zm11.3 0-.8 3.7c0 .5-2.7.9-3.2 1 .5.2 3.1.7 3.2 1.1l.8 3.8.8-3.8c0-.4 2.7-.9 3.2-1-.5-.2-3.1-.7-3.2-1.1l-.8-3.8ZM107 45l-.7 3.7c-.2.5-2.8 1-3.3 1.1.5.1 3.1.7 3.3 1l.7 3.9.8-3.9c0-.4 2.7-.9 3.2-1-.4-.1-3.1-.6-3.2-1l-.8-3.8Zm0-13.5-.7 3.7c-.2.5-2.8.9-3.2 1 .4.2 3 .7 3.2 1.1l.8 3.8.7-3.8c.2-.4 2.8-.9 3.2-1-.4-.2-3-.7-3.2-1.1l-.6-3.7h-.1ZM96 45l-.8 3.7c0 .5-2.6 1-3.2 1.1.5.1 3.2.7 3.2 1l.8 3.9.8-3.9c.1-.4 2.7-.9 3.3-1-.6-.1-3.2-.6-3.3-1l-.8-3.8Zm0-13.5-.7 3.7c-.1.5-2.8.9-3.3 1 .5.2 3.2.7 3.3 1.1l.7 3.8.8-3.8c0-.4 2.7-.9 3.3-1-.6-.2-3.2-.7-3.3-1.1l-.8-3.7Zm-67.3 81.3-.8 3.9c-.1.4-2.7 1-3.2 1 .5.2 3 .7 3.2 1l.8 3.9.7-3.8c.2-.4 2.8-1 3.2-1-.4-.2-3-.8-3.2-1.1l-.7-3.9Zm0-13.5-.8 3.8c0 .4-2.7 1-3.2 1 .5.2 3.1.7 3.2 1.1l.8 3.8.8-3.8c0-.4 2.7-.9 3.2-1-.5-.2-3.1-.7-3.2-1l-.8-4v.1Zm0-13.6-.8 3.8c0 .5-2.7.9-3.2 1 .5.2 3.1.7 3.2 1.1l.8 3.8.8-3.8c0-.4 2.7-.9 3.2-1-.5-.2-3.1-.6-3.2-1.1l-.8-3.8Zm0 53.3-.8 3.8c0 .5-2.7 1-3.2 1.1.5.2 3.1.6 3.2 1l.8 3.8.7-3.7c.2-.5 2.8-1 3.3-1-.5-.3-3.1-.8-3.3-1.2l-.7-3.8Zm0 13.6-.8 3.8c0 .5-2.7.9-3.2 1 .5.2 3.1.7 3.2 1.1l.8 3.8.7-3.8c.2-.4 2.8-.9 3.3-1-.5-.2-3.1-.7-3.3-1.1l-.7-3.8Zm0 13.6-.8 3.7c0 .5-2.7 1-3.2 1.2.5.1 3.1.5 3.2 1l.8 3.8.7-3.8c.2-.5 2.8-.9 3.3-1-.5-.2-3.1-.7-3.3-1.2l-.7-3.7Zm0-39.8-.8 3.8c0 .5-2.7 1-3.2 1 .5.3 3.1.7 3.2 1.2l.8 3.7.7-3.7c.2-.5 2.8-1 3.3-1.2-.5 0-3.1-.5-3.3-1l-.7-3.8Zm0-54.3-.8 3.8c0 .5-2.7 1-3.2 1 .5.3 3.1.7 3.2 1.2l.8 3.7.7-3.7c.2-.5 2.8-1 3.3-1.2-.5 0-3.1-.5-3.3-1l-.7-3.8Zm0-13.6-.8 3.8c0 .5-2.7 1-3.2 1.1.5.2 3.1.6 3.2 1l.8 3.9.7-3.8c.2-.5 2.8-1 3.3-1-.5-.3-3.1-.8-3.3-1.2l-.7-3.8Zm0-13.5-.8 3.7c0 .5-2.7 1-3.2 1.1.5.2 3.1.7 3.2 1.1l.8 3.8.7-3.8c.2-.5 2.8-.9 3.3-1.1-.5-.1-3.1-.6-3.3-1l-.7-3.8Zm0-13.5-.8 3.7c0 .5-2.7.9-3.2 1 .5.2 3.1.7 3.2 1.1l.8 3.8.7-3.8c.2-.4 2.8-.9 3.3-1-.5-.2-3.1-.7-3.3-1.1l-.7-3.7Zm11.2 81.3-.8 3.9c0 .4-2.7 1-3.2 1 .5.2 3.1.7 3.2 1l.8 3.9.8-3.8c0-.4 2.7-1 3.2-1-.5-.2-3.2-.8-3.2-1.1l-.8-3.9Zm0-13.5-.8 3.8c0 .4-2.7 1-3.2 1 .5.2 3.1.7 3.2 1.1l.8 3.8.8-3.8c.1-.4 2.7-.9 3.2-1-.5-.2-3-.7-3.2-1l-.8-4v.1Zm0-13.6-.8 3.8c0 .5-2.7 1-3.2 1 .4.3 3.1.8 3.2 1.2l.8 3.8.7-3.8c.1-.5 2.8-.9 3.3-1.1-.5-.1-3.2-.6-3.3-1l-.7-3.8v-.1Zm0 53.3-.8 3.8c0 .5-2.7 1-3.2 1.1.5.2 3.1.6 3.2 1l.8 3.8.8-3.7c0-.5 2.7-1 3.2-1-.5-.3-3.2-.8-3.2-1.2l-.8-3.8Zm0 13.6-.8 3.8c0 .5-2.7.9-3.2 1 .5.2 3.1.7 3.2 1.1l.8 3.8.8-3.8c0-.4 2.7-.9 3.2-1-.5-.2-3.2-.7-3.2-1.1l-.8-3.8Zm0 13.6-.8 3.7c0 .5-2.7 1-3.2 1.2.5.1 3.1.5 3.2 1l.8 3.8.8-3.8c0-.5 2.7-.9 3.2-1-.5-.2-3.2-.7-3.2-1.2l-.8-3.7Zm0-39.8-.8 3.8c0 .5-2.7 1-3.2 1 .5.3 3.1.7 3.2 1.2l.8 3.7.8-3.7c0-.5 2.7-1 3.2-1.2-.5 0-3.2-.5-3.2-1l-.8-3.8Zm0-54.3L39 76c0 .5-2.7 1-3.2 1 .5.3 3.1.7 3.2 1.2l.8 3.7.8-3.7c.1-.5 2.7-1 3.2-1.2-.5 0-3-.5-3.2-1l-.8-3.8Zm0-13.6-.8 3.8c0 .5-2.7 1-3.2 1.1.5.2 3.1.6 3.2 1l.8 3.9.8-3.8c0-.5 2.7-1 3.2-1-.5-.3-3.2-.8-3.2-1.2l-.8-3.8Zm0-13.5-.8 3.7c0 .5-2.7 1-3.2 1.1.5.2 3.1.7 3.2 1.1l.8 3.8.8-3.8c.1-.5 2.7-.9 3.2-1.1-.5-.1-3-.6-3.2-1l-.8-3.8Zm0-13.5-.8 3.7c0 .5-2.7.9-3.2 1 .5.2 3.1.7 3.2 1.1l.8 3.8.8-3.8c0-.4 2.7-.9 3.2-1-.5-.2-3.2-.7-3.2-1.1l-.8-3.7Z" fill="#F0F0F0" />
</svg>